<?xml version="1.0" standalone="no"?>
<!DOCTYPE svg PUBLIC "-//W3C//DTD SVG 20010904//EN"
 "http://www.w3.org/TR/2001/REC-SVG-20010904/DTD/svg10.dtd">
<svg version="1.0" xmlns="http://www.w3.org/2000/svg"
 width="500.000000pt" height="511.000000pt" viewBox="0 0 500.000000 511.000000"
 preserveAspectRatio="xMidYMid meet">

<g transform="translate(0.000000,511.000000) scale(0.100000,-0.100000)"
fill="#000000" stroke="none">
<path d="M2215 4929 c-4 -5 -18 -15 -32 -20 -23 -8 -25 -14 -20 -45 4 -20 9
-39 12 -43 13 -12 158 -7 163 7 2 6 10 12 17 12 7 0 18 14 24 31 10 28 9 31
-19 41 -17 5 -30 14 -30 19 0 13 -107 11 -115 -2z m48 -70 c-29 -10 -47 1 -26
16 13 10 21 10 31 2 12 -9 11 -12 -5 -18z m67 1 c0 -5 -4 -10 -9 -10 -6 0 -13
5 -16 10 -3 6 1 10 9 10 9 0 16 -4 16 -10z"/>
<path d="M2645 4921 c-28 -16 -48 -61 -28 -61 5 0 19 -9 31 -21 27 -25 76 -34
134 -25 79 12 86 69 13 106 -48 24 -109 25 -150 1z m45 -55 c0 -3 -4 -8 -10
-11 -5 -3 -10 -1 -10 4 0 6 5 11 10 11 6 0 10 -2 10 -4z"/>
<path d="M3275 4930 c3 -5 8 -10 11 -10 2 0 4 5 4 10 0 6 -5 10 -11 10 -5 0
-7 -4 -4 -10z"/>
<path d="M1670 4901 c0 -10 -9 -30 -20 -44 -24 -30 -26 -92 -6 -134 8 -15 18
-41 23 -58 18 -62 177 -114 210 -69 7 10 13 23 13 30 0 21 -60 88 -93 103 -18
8 -34 17 -37 19 -3 2 -5 32 -5 65 0 59 -1 62 -24 62 -15 0 -27 8 -32 23 -10
27 -29 29 -29 3z"/>
<path d="M3309 4889 c-8 -5 -26 -9 -41 -9 -35 0 -39 -9 -27 -54 14 -50 4 -73
-39 -95 -79 -40 -112 -114 -66 -148 51 -37 204 52 204 119 0 9 7 21 15 28 25
21 20 106 -9 140 -16 20 -27 25 -37 19z"/>
<path d="M1903 4843 c3 -26 11 -70 18 -97 11 -41 20 -54 58 -77 24 -16 60 -34
79 -40 31 -10 37 -9 59 13 23 24 24 27 10 59 -13 31 -99 119 -117 119 -4 0
-12 11 -18 25 -7 15 -20 25 -32 25 -12 0 -30 5 -42 11 -19 10 -20 9 -15 -38z"/>
<path d="M1434 4828 c-53 -56 -78 -110 -70 -153 7 -38 79 -130 133 -171 24
-18 52 -29 83 -32 43 -4 50 -2 61 19 23 42 4 109 -31 109 -27 0 -110 37 -116
53 -2 7 2 30 11 50 18 43 20 138 3 155 -19 19 -32 14 -74 -30z"/>
<path d="M3002 4846 c-6 -14 -24 -33 -39 -43 -41 -25 -68 -54 -87 -90 -22 -43
-20 -60 8 -78 22 -14 28 -14 77 5 30 12 66 33 81 47 31 29 58 100 58 150 0 32
-1 33 -43 33 -37 0 -46 -4 -55 -24z"/>
<path d="M3477 4863 c-2 -5 -5 -42 -6 -84 -1 -58 2 -79 14 -89 18 -15 20 -46
3 -57 -22 -13 -82 -33 -104 -33 -20 0 -44 -35 -44 -65 0 -8 5 -26 12 -40 26
-57 146 -15 219 77 38 49 39 52 39 132 l0 81 -45 43 c-41 39 -78 53 -88 35z"/>
<path d="M1195 4698 l-35 -33 0 -92 c0 -89 1 -94 27 -116 14 -12 34 -29 43
-38 37 -35 130 -50 184 -29 34 13 33 25 -8 66 -26 26 -42 34 -69 34 -20 0 -47
4 -60 9 -23 9 -24 13 -16 53 10 51 11 140 3 162 -9 24 -30 19 -69 -16z"/>
<path d="M3725 4694 c-19 -46 -19 -57 5 -124 18 -51 18 -56 3 -67 -9 -7 -36
-13 -60 -13 -28 0 -48 -6 -60 -19 -10 -10 -28 -22 -40 -25 -32 -10 -30 -44 3
-56 37 -14 109 -12 149 4 112 47 153 171 92 276 -40 70 -70 77 -92 24z"/>
<path d="M990 4529 c-14 -5 -30 -21 -37 -35 -10 -22 -8 -36 13 -93 14 -37 23
-77 20 -92 -4 -20 1 -29 25 -43 34 -20 79 -15 79 9 0 16 -35 55 -49 55 -20 0
-20 35 -1 72 26 50 25 81 -2 112 -19 20 -27 22 -48 15z"/>
<path d="M3955 4510 c-20 -38 -19 -59 4 -111 21 -47 17 -64 -20 -82 -13 -7
-25 -23 -27 -35 -3 -19 1 -22 30 -22 40 0 58 15 58 47 0 33 20 72 42 78 23 8
23 31 -2 89 -18 39 -44 66 -64 66 -3 0 -12 -13 -21 -30z"/>
<path d="M2008 4373 c-14 -2 -32 -11 -38 -19 -7 -8 -16 -14 -21 -14 -23 0
-129 -55 -129 -67 0 -7 6 -13 13 -13 25 0 87 21 87 30 0 5 24 16 53 24 92 27
132 46 116 57 -14 9 -32 9 -81 2z"/>
<path d="M2924 4361 c3 -4 24 -11 46 -15 22 -3 40 -10 40 -15 0 -5 14 -14 30
-21 17 -7 30 -16 30 -19 0 -10 99 -52 137 -58 39 -7 44 9 8 25 -14 6 -25 16
-25 21 0 13 -79 48 -128 57 -20 4 -43 13 -50 21 -15 14 -97 19 -88 4z"/>
<path d="M4166 4325 c-9 -24 -7 -68 3 -84 7 -11 14 -7 30 20 22 36 28 69 12
69 -5 0 -16 3 -24 6 -8 3 -17 -2 -21 -11z"/>
<path d="M780 4307 c0 -13 9 -32 20 -42 19 -17 19 -19 2 -47 -16 -28 -16 -30
3 -44 19 -15 20 -13 25 48 8 88 3 108 -26 108 -19 0 -24 -5 -24 -23z"/>
<path d="M1183 4284 c-7 -19 4 -31 40 -39 24 -6 27 -4 27 18 0 36 -54 53 -67
21z"/>
<path d="M3768 4293 c-11 -3 -18 -14 -18 -29 0 -28 -2 -27 39 -13 51 18 32 56
-21 42z"/>
<path d="M1788 4243 c7 -3 16 -2 19 1 4 3 -2 6 -13 5 -11 0 -14 -3 -6 -6z"/>
<path d="M2488 4212 c-168 -2 -178 -4 -189 -23 -9 -18 -6 -27 18 -57 16 -21
34 -56 41 -78 14 -49 2 -93 -45 -164 -17 -25 -34 -56 -38 -69 -4 -14 -22 -46
-40 -71 -18 -26 -36 -61 -40 -78 -3 -18 -11 -34 -16 -38 -5 -3 -23 -33 -40
-67 -16 -34 -50 -100 -75 -147 -25 -47 -51 -98 -57 -114 -5 -17 -23 -48 -37
-70 -15 -23 -31 -52 -35 -66 -4 -14 -23 -50 -41 -81 -19 -31 -34 -63 -34 -71
0 -9 -9 -27 -20 -41 -11 -14 -20 -34 -20 -45 0 -10 -9 -31 -20 -45 -11 -14
-20 -39 -20 -56 0 -25 4 -31 23 -31 32 0 128 -58 134 -81 6 -23 43 -26 43 -4
0 9 11 26 24 38 14 13 28 35 32 51 9 36 52 66 65 45 5 -8 9 -73 9 -145 0 -97
4 -135 14 -150 14 -18 15 -18 25 9 6 16 11 46 11 67 0 45 17 63 25 25 3 -14 7
-36 10 -49 7 -35 39 -70 58 -63 23 9 29 69 25 249 -2 109 -7 161 -16 170 -20
20 -32 -3 -39 -75 -3 -36 -10 -64 -14 -61 -5 3 -9 16 -9 29 0 13 -13 38 -30
55 -16 17 -30 37 -30 45 0 20 58 132 91 175 15 19 33 51 42 70 21 51 75 120
92 120 19 0 31 -29 39 -100 16 -128 16 -129 54 -155 55 -37 112 -34 159 8 33
31 37 39 43 108 8 84 41 188 64 201 13 7 13 14 1 56 -7 26 -16 63 -19 83 -11
61 -39 71 -129 48 -42 -11 -50 -10 -64 4 -13 13 -15 23 -7 44 13 39 55 43 74
8 28 -52 44 -25 59 100 6 55 19 132 27 170 9 39 22 117 29 174 14 104 10 135
-17 142 -7 2 -93 3 -190 1z m-110 -613 c-2 -15 -11 -25 -24 -27 -18 -3 -20 -8
-16 -56 4 -53 4 -53 -41 -90 -45 -37 -67 -40 -67 -10 0 20 60 124 71 124 5 0
15 12 21 28 22 50 41 73 50 64 5 -5 8 -20 6 -33z m266 -81 c18 -26 21 -75 6
-114 -6 -14 -15 -58 -20 -97 -6 -39 -14 -75 -19 -81 -12 -14 -139 -12 -153 2
-7 7 -17 12 -24 12 -27 0 -25 88 2 111 20 16 17 38 -7 58 -20 16 -21 21 -10
54 20 59 51 77 137 77 64 0 75 -3 88 -22z m-76 -340 c17 -17 15 -49 -4 -76
-20 -29 -42 -28 -75 4 -24 23 -25 29 -16 55 10 25 17 29 47 29 20 0 41 -5 48
-12z"/>
<path d="M2590 3382 c0 -14 6 -22 16 -22 14 0 15 3 3 18 -7 9 -15 19 -16 21
-2 2 -3 -5 -3 -17z"/>
<path d="M3245 4210 c3 -5 18 -10 33 -9 24 0 25 1 7 9 -28 12 -47 12 -40 0z"/>
<path d="M4170 4176 c0 -4 6 -15 13 -26 10 -17 9 -22 -3 -30 -23 -15 -80 -12
-97 5 -11 12 -31 15 -70 13 -47 -3 -57 -7 -71 -30 -24 -40 -6 -54 42 -34 33
14 41 13 97 -5 l61 -20 22 20 c12 12 28 21 35 21 21 0 10 84 -11 88 -10 2 -18
1 -18 -2z"/>
<path d="M920 4125 c-7 -9 -29 -15 -55 -15 -51 0 -56 -4 -41 -35 13 -29 45
-33 81 -9 24 16 99 12 136 -7 24 -12 33 29 13 58 -12 19 -23 23 -68 23 -35 0
-58 -5 -66 -15z"/>
<path d="M611 4091 c-11 -7 -10 -11 7 -22 20 -12 21 -19 15 -111 -6 -98 -6
-98 17 -98 13 0 32 -8 42 -17 13 -11 39 -17 81 -19 34 -1 47 0 30 3 -25 3 -33
9 -33 25 0 20 4 21 65 15 57 -5 66 -4 75 13 11 20 4 50 -14 62 -22 16 -68 7
-119 -22 -30 -16 -65 -30 -79 -30 l-26 0 5 80 c5 74 4 81 -18 104 -27 29 -28
29 -48 17z"/>
<path d="M4340 4056 c-32 -71 -26 -146 12 -146 19 0 20 5 16 55 -3 36 0 59 7
65 13 11 9 57 -6 65 -4 3 -17 -14 -29 -39z"/>
<path d="M4117 3943 c-21 -5 -57 -38 -57 -52 0 -16 34 -24 97 -22 52 2 63 0
72 -17 16 -29 53 -32 86 -6 34 27 26 44 -21 44 -19 0 -51 10 -72 24 -40 26
-77 36 -105 29z"/>
<path d="M470 3838 c1 -26 10 -41 45 -71 l45 -38 0 30 c0 21 -5 31 -15 31 -8
0 -15 8 -15 18 0 17 -38 62 -53 62 -4 0 -7 -15 -7 -32z"/>
<path d="M4469 3820 c-6 -16 -15 -30 -20 -30 -12 0 -11 -117 1 -141 21 -38 31
-20 24 45 -4 42 -3 66 5 70 6 4 11 3 11 -3 0 -5 5 -22 12 -38 11 -27 12 -25
18 37 7 77 4 90 -22 90 -12 0 -23 -11 -29 -30z"/>
<path d="M4178 3823 c7 -3 16 -2 19 1 4 3 -2 6 -13 5 -11 0 -14 -3 -6 -6z"/>
<path d="M480 3717 c0 -30 4 -46 10 -42 13 8 13 55 0 75 -7 11 -10 2 -10 -33z"/>
<path d="M685 3700 c-10 -11 -25 -20 -34 -20 -9 0 -24 -9 -34 -20 -9 -11 -26
-20 -37 -20 -23 0 -24 -4 -10 -31 9 -16 21 -19 83 -18 48 1 62 4 42 8 -33 7
-49 41 -18 41 10 0 31 7 47 15 35 19 36 19 36 -1 0 -20 29 -15 44 9 18 29 -4
52 -56 55 -34 2 -48 -2 -63 -18z"/>
<path d="M4194 3712 c-18 -11 13 -83 32 -75 8 3 14 11 14 19 0 8 3 14 8 14 14
0 31 -38 25 -59 -5 -20 -1 -21 54 -21 46 0 64 4 77 19 17 18 16 20 -3 26 -12
3 -21 11 -21 16 0 6 -14 15 -30 21 -17 5 -35 19 -41 29 -7 15 -21 19 -57 19
-26 0 -52 -4 -58 -8z m133 -88 c-3 -3 -12 -4 -19 -1 -8 3 -5 6 6 6 11 1 17 -2
13 -5z"/>
<path d="M378 3579 c-26 -14 -24 -95 2 -134 11 -16 20 -40 20 -52 0 -28 33
-47 84 -49 21 -1 43 -7 49 -13 16 -16 38 -14 93 9 54 23 94 70 94 112 0 33
-33 43 -74 23 -16 -8 -35 -15 -42 -15 -7 0 -29 -14 -49 -31 -41 -37 -65 -33
-65 11 0 19 -15 51 -42 90 -24 33 -45 59 -48 59 -3 0 -13 -4 -22 -10z"/>
<path d="M4573 3571 c-13 -11 -23 -24 -23 -31 0 -6 -9 -28 -20 -50 -11 -22
-20 -50 -20 -63 0 -48 -24 -50 -63 -7 -19 22 -42 40 -50 40 -8 0 -27 6 -41 14
-73 37 -111 -34 -48 -93 54 -50 140 -79 157 -51 3 6 26 10 50 10 37 0 47 5 64
29 56 79 82 201 45 215 -22 9 -26 8 -51 -13z"/>
<path d="M1092 3455 c0 -16 2 -22 5 -12 2 9 2 23 0 30 -3 6 -5 -1 -5 -18z"/>
<path d="M2923 3453 c-7 -2 -15 -21 -19 -41 -9 -52 -19 -61 -75 -68 l-49 -7 0
-41 c0 -27 12 -64 35 -109 19 -38 35 -75 35 -83 0 -8 12 -40 26 -70 32 -68 27
-86 -23 -82 l-38 3 -3 -199 c-1 -110 1 -203 6 -208 15 -15 43 17 46 55 4 45
30 77 63 77 25 0 43 31 43 76 0 34 17 30 25 -5 3 -16 13 -35 20 -41 8 -6 19
-28 26 -48 6 -20 27 -70 46 -109 23 -48 33 -84 31 -105 -3 -29 -7 -33 -35 -36
-26 -3 -34 -9 -40 -30 -4 -19 -2 -29 12 -36 9 -6 56 -41 104 -79 47 -37 122
-92 166 -122 44 -30 95 -70 114 -90 52 -54 101 -41 101 27 0 13 16 59 35 102
19 43 37 99 41 123 3 24 10 46 15 48 4 3 4 16 0 28 -7 18 -18 23 -66 27 l-58
5 -48 95 c-27 52 -61 117 -76 144 -59 103 -102 183 -132 246 -18 35 -38 71
-46 80 -7 8 -17 29 -21 45 -4 17 -10 32 -13 35 -14 11 -71 104 -71 116 0 7
-16 36 -35 65 -19 30 -35 59 -35 65 0 7 -18 32 -40 56 -22 23 -40 53 -40 65 0
24 -9 33 -27 26z"/>
<path d="M1033 3317 c-12 -39 -24 -100 -27 -135 -3 -35 -13 -89 -22 -119 -19
-65 -16 -242 4 -280 7 -12 16 -59 21 -105 12 -100 46 -212 56 -185 11 26 -1
96 -22 137 -15 31 -17 66 -17 295 0 244 2 263 22 313 21 50 31 152 15 152 -5
0 -18 -33 -30 -73z"/>
<path d="M3930 3351 c0 -42 12 -94 19 -83 9 15 0 112 -10 112 -5 0 -9 -13 -9
-29z"/>
<path d="M307 3299 c-18 -11 -18 -11 4 -113 13 -57 44 -106 68 -106 6 0 14 -6
17 -14 4 -11 12 -12 27 -7 13 5 45 4 75 -2 47 -10 55 -9 63 6 6 9 15 17 21 17
16 0 52 42 76 89 45 86 -20 114 -105 45 -23 -19 -45 -43 -48 -54 -4 -14 -15
-20 -35 -20 -24 0 -31 5 -36 28 -21 96 -81 158 -127 131z"/>
<path d="M4648 3303 c-9 -2 -39 -38 -68 -79 -28 -41 -55 -74 -59 -74 -4 0 -24
15 -43 34 -102 99 -185 88 -138 -17 22 -48 44 -75 83 -100 22 -14 40 -16 95
-11 74 7 132 28 132 48 0 8 6 16 13 19 11 4 26 49 42 134 5 25 2 34 -14 42
-11 6 -21 10 -23 10 -2 -1 -10 -3 -20 -6z"/>
<path d="M3968 2935 c-2 -231 -6 -318 -15 -323 -13 -8 -32 -81 -33 -125 0 -54
25 -22 35 45 6 36 15 71 21 79 6 8 14 40 18 73 3 32 12 68 19 80 20 35 16 290
-5 349 -10 26 -18 65 -18 87 0 21 -4 41 -10 45 -6 3 -10 -112 -12 -310z"/>
<path d="M270 3011 c-32 -60 11 -157 93 -213 32 -22 44 -24 75 -17 20 4 46 6
57 3 27 -7 118 59 140 101 10 18 15 46 13 70 -2 33 -7 41 -26 43 -30 4 -104
-39 -121 -71 -7 -14 -24 -30 -38 -36 -22 -10 -25 -8 -38 21 -15 37 -44 66 -95
97 -43 26 -47 26 -60 2z"/>
<path d="M4634 2982 c-23 -20 -48 -49 -57 -63 -9 -15 -25 -29 -37 -32 -17 -4
-24 1 -36 28 -17 42 -90 88 -131 83 -26 -3 -28 -6 -27 -44 1 -53 33 -105 87
-142 36 -24 54 -29 114 -30 l71 -2 51 48 51 48 0 72 c0 68 -1 72 -22 72 -13 0
-42 -17 -64 -38z"/>
<path d="M2462 2953 c-16 -31 -33 -119 -46 -235 -12 -101 -14 -110 -24 -85 -7
17 -12 84 -12 162 0 73 -3 140 -6 149 -3 9 -16 16 -29 16 -13 0 -26 -7 -29
-16 -8 -20 -8 -342 0 -371 6 -21 12 -23 69 -23 54 0 65 3 70 19 3 11 12 25 20
31 12 10 21 6 50 -26 33 -36 36 -37 52 -21 15 15 15 20 -1 74 -10 32 -20 81
-22 108 -12 143 -26 216 -44 225 -27 14 -38 12 -48 -7z"/>
<path d="M2616 2954 c-3 -9 -6 -103 -6 -209 0 -157 3 -194 14 -198 18 -7 22 4
31 77 9 68 22 80 30 29 12 -68 26 -102 46 -108 10 -4 23 -3 29 0 6 4 10 82 10
206 0 171 -2 200 -15 206 -20 7 -26 1 -34 -39 l-7 -32 -39 42 c-44 47 -50 49
-59 26z"/>
<path d="M1750 2784 c0 -8 5 -12 10 -9 6 3 10 10 10 16 0 5 -4 9 -10 9 -5 0
-10 -7 -10 -16z"/>
<path d="M573 2739 c-21 -13 -39 -39 -54 -75 -13 -29 -27 -54 -32 -54 -5 0
-33 25 -62 56 -80 83 -155 95 -155 26 0 -44 52 -132 86 -147 17 -7 35 -18 38
-24 9 -14 63 -15 71 -1 3 5 29 12 58 16 71 10 122 59 132 128 9 55 -5 96 -32
96 -10 0 -32 -9 -50 -21z"/>
<path d="M4346 2744 c-31 -30 -14 -107 36 -166 17 -20 39 -31 78 -38 30 -6 59
-15 64 -20 17 -17 51 -11 100 16 77 43 129 150 91 187 -9 10 -21 17 -26 17
-26 0 -79 -32 -124 -74 l-50 -47 -22 28 c-13 15 -28 40 -34 55 -10 24 -61 58
-87 58 -6 0 -18 -7 -26 -16z"/>
<path d="M1848 2525 c-13 -14 -47 -37 -75 -52 -28 -16 -80 -43 -114 -61 -35
-19 -74 -42 -87 -53 -14 -10 -30 -19 -38 -19 -7 0 -33 -16 -58 -35 -25 -19
-60 -41 -78 -48 -18 -8 -39 -21 -47 -30 -17 -21 -4 -39 52 -70 62 -34 70 -40
118 -79 40 -33 90 -61 112 -62 4 -1 20 22 36 49 l29 50 478 11 c421 10 617 22
676 40 16 5 16 7 2 29 -15 23 -22 116 -13 155 3 11 -10 16 -56 21 -69 8 -410
25 -698 35 -222 8 -226 9 -191 73 11 20 18 44 16 54 -5 25 -37 21 -64 -8z"/>
<path d="M628 2497 c-20 -19 -40 -47 -43 -63 -15 -64 -22 -79 -43 -82 -14 -2
-28 7 -43 27 -13 17 -28 31 -35 31 -6 0 -23 9 -38 21 -18 14 -37 19 -63 17
-36 -3 -38 -5 -41 -38 -2 -30 5 -43 45 -87 57 -62 90 -71 192 -52 64 11 73 15
94 48 68 103 86 180 48 201 -29 15 -34 13 -73 -23z"/>
<path d="M4296 2514 c-23 -22 -20 -64 9 -125 45 -95 62 -109 147 -121 42 -6
88 -8 103 -4 34 9 86 61 104 104 18 43 2 82 -33 82 -25 0 -85 -30 -121 -60
-11 -10 -30 -20 -42 -23 -18 -4 -24 1 -34 32 -14 42 -85 131 -104 131 -8 0
-21 -7 -29 -16z"/>
<path d="M3901 2434 c0 -11 3 -14 6 -6 3 7 2 16 -1 19 -3 4 -6 -2 -5 -13z"/>
<path d="M711 2252 c-40 -42 -43 -49 -38 -89 3 -28 0 -46 -9 -54 -16 -13 -71
-3 -81 15 -13 20 -73 46 -109 46 -41 0 -61 -28 -44 -61 15 -27 47 -59 60 -59
6 0 22 -7 36 -16 33 -23 97 -23 121 -1 11 9 26 17 34 17 19 1 74 50 83 75 13
35 25 122 19 143 -9 36 -29 31 -72 -16z"/>
<path d="M4209 2269 c-23 -43 8 -135 65 -193 12 -12 42 -32 69 -44 50 -25 90
-24 134 4 12 8 27 14 33 14 13 0 45 32 60 59 17 33 -3 61 -43 61 -37 0 -106
-30 -127 -54 -7 -9 -25 -16 -41 -16 -25 0 -29 4 -34 38 -12 67 -28 107 -52
130 -30 28 -49 28 -64 1z"/>
<path d="M841 2049 c-27 -29 -27 -69 -1 -92 11 -9 22 -17 24 -17 6 0 19 74 17
95 -4 33 -18 38 -40 14z"/>
<path d="M4127 2064 c-20 -20 12 -124 37 -124 19 0 27 26 19 58 -7 31 -46 76
-56 66z"/>
<path d="M1784 1952 c-40 -3 -42 -5 -48 -43 -8 -49 8 -86 30 -68 8 6 14 18 14
25 0 18 14 18 30 0 22 -28 43 -7 37 37 -7 49 -12 53 -63 49z"/>
<path d="M2502 1951 c-11 -7 -11 -18 -1 -64 11 -45 16 -54 27 -45 7 7 12 22 9
35 -2 13 0 26 4 29 15 9 10 41 -7 48 -19 7 -16 7 -32 -3z"/>
<path d="M2799 1953 c-19 -5 -34 -63 -24 -93 10 -33 35 -24 35 12 0 17 7 39
16 49 9 10 13 23 9 28 -6 11 -9 12 -36 4z"/>
<path d="M1883 1914 c-18 -37 -13 -57 20 -78 12 -8 22 -8 35 0 21 14 26 35 17
80 -5 28 -10 34 -31 34 -18 0 -29 -9 -41 -36z"/>
<path d="M2027 1943 c-23 -22 9 -82 44 -83 8 -1 25 -7 38 -14 19 -10 30 -11
60 0 27 9 49 10 80 3 77 -17 99 7 66 71 -17 32 -22 35 -44 21 -9 -6 -23 -5
-37 1 -17 8 -27 8 -39 -2 -13 -11 -20 -11 -40 0 -20 11 -27 11 -40 0 -12 -10
-19 -10 -27 -2 -13 13 -51 16 -61 5z"/>
<path d="M2420 1921 c0 -16 -3 -36 -6 -45 -4 -10 1 -18 11 -23 24 -9 45 22 45
64 0 29 -3 33 -25 33 -21 0 -25 -5 -25 -29z"/>
<path d="M2569 1943 c-4 -29 5 -80 17 -97 13 -18 14 -18 31 12 13 23 25 32 44
32 20 0 28 6 31 25 3 13 3 27 0 30 -12 11 -42 4 -51 -12 -9 -17 -10 -17 -16 0
-7 16 -54 25 -56 10z"/>
<path d="M3126 1943 c-21 -21 12 -76 62 -102 18 -10 26 -9 44 3 15 11 26 12
40 5 31 -17 58 -2 58 32 0 29 -1 30 -42 28 -87 -6 -138 0 -138 15 0 17 -14 28
-24 19z"/>
<path d="M3010 1930 c0 -16 -63 -40 -74 -29 -18 16 -43 9 -54 -15 -13 -30 4
-40 55 -30 22 4 50 0 78 -11 42 -16 46 -16 69 2 33 23 32 30 -4 64 -29 29 -70
39 -70 19z"/>
<path d="M557 1880 c-3 -11 -2 -20 3 -20 4 0 10 9 13 20 3 11 2 20 -3 20 -4 0
-10 -9 -13 -20z"/>
<path d="M689 1884 c-12 -14 -10 -19 14 -38 15 -12 27 -27 27 -33 0 -22 20
-24 49 -7 l29 17 -28 24 c-15 12 -31 23 -36 23 -4 0 -15 7 -24 15 -15 14 -19
14 -31 -1z"/>
<path d="M4280 1885 c-7 -8 -18 -15 -24 -15 -6 -1 -23 -11 -38 -23 -23 -19
-25 -24 -13 -40 15 -20 55 -15 55 6 0 7 14 20 30 29 18 10 30 25 30 38 0 23
-22 27 -40 5z"/>
<path d="M3975 1794 c-11 -114 -4 -142 47 -195 50 -52 84 -64 156 -54 35 5 58
16 85 40 40 37 45 55 21 79 -21 21 -150 22 -173 2 -9 -8 -27 -12 -42 -9 -28 5
-28 5 -44 157 -4 35 -17 55 -37 56 -3 0 -9 -34 -13 -76z"/>
<path d="M971 1843 c-5 -11 -5 -26 0 -42 7 -16 6 -43 -2 -79 -15 -66 -43 -85
-83 -58 -37 24 -147 22 -169 -2 -23 -25 -21 -36 12 -73 21 -22 45 -35 82 -43
73 -17 121 1 177 65 42 50 42 50 42 130 0 44 -5 89 -10 100 -13 24 -36 25 -49
2z"/>
<path d="M1129 1653 c-6 -16 -14 -61 -18 -102 l-6 -73 -80 -2 c-95 -2 -135
-21 -135 -66 0 -39 31 -62 103 -75 51 -9 70 -9 105 3 24 8 46 22 49 31 4 9 22
33 40 54 l34 39 -7 91 c-8 107 -16 127 -50 127 -17 0 -28 -8 -35 -27z"/>
<path d="M1697 1657 c33 -28 61 -39 74 -31 13 8 -57 54 -82 54 -18 0 -18 -2 8
-23z"/>
<path d="M3227 1645 c-25 -19 -56 -35 -69 -35 -13 0 -39 -11 -58 -25 -19 -14
-40 -25 -48 -25 -7 0 -10 -5 -7 -10 16 -27 175 27 175 59 0 5 13 11 29 14 16
3 41 18 56 32 l28 25 -30 0 c-19 0 -47 -13 -76 -35z"/>
<path d="M3798 1655 c-14 -18 -18 -44 -18 -110 0 -85 0 -86 40 -139 61 -80
117 -95 222 -60 52 17 72 43 61 82 -7 30 -50 45 -128 47 -39 0 -76 4 -83 9 -8
4 -12 32 -12 76 0 38 -4 80 -10 94 -12 33 -49 34 -72 1z"/>
<path d="M1797 1604 c-11 -11 55 -52 97 -59 21 -4 40 -13 43 -21 6 -17 111
-30 125 -16 8 8 2 13 -18 17 -16 4 -60 22 -99 40 -73 35 -135 52 -148 39z"/>
<path d="M1310 1494 c-11 -33 -13 -76 -7 -159 2 -30 1 -30 -58 -35 -154 -15
-184 -114 -42 -141 78 -15 126 9 194 97 45 56 43 169 -3 236 -36 51 -68 52
-84 2z"/>
<path d="M2970 1520 c-21 -7 -19 -8 17 -9 23 -1 45 4 48 9 7 12 -29 12 -65 0z"/>
<path d="M3614 1503 c-32 -43 -57 -130 -51 -171 4 -19 17 -47 31 -61 13 -14
27 -36 30 -48 4 -12 16 -25 27 -28 10 -4 19 -10 19 -14 0 -16 84 -30 123 -22
95 22 115 76 42 117 -25 15 -57 23 -86 24 -60 0 -73 16 -66 78 3 26 2 70 -1
97 -8 61 -35 72 -68 28z"/>
<path d="M1532 1384 c-18 -13 -22 -25 -22 -71 0 -31 5 -71 12 -89 14 -41 2
-59 -47 -68 -19 -4 -48 -18 -64 -31 -16 -14 -34 -25 -40 -25 -17 0 -13 -19 9
-37 30 -26 162 -19 202 10 15 11 28 26 28 33 0 7 7 17 15 21 10 6 17 34 21 94
l7 86 -43 47 c-23 25 -45 46 -49 46 -4 0 -17 -7 -29 -16z"/>
<path d="M3395 1363 c-48 -49 -62 -99 -48 -168 7 -30 21 -64 33 -77 61 -67 59
-66 139 -70 91 -5 121 0 121 18 0 24 -59 68 -113 85 -66 21 -74 35 -58 98 13
51 8 100 -13 133 -15 25 -20 23 -61 -19z"/>
<path d="M1758 1289 c-14 -7 -18 -23 -18 -63 0 -46 5 -58 36 -94 31 -36 34
-46 27 -70 -8 -23 -16 -27 -49 -30 -70 -4 -84 -10 -84 -36 0 -24 0 -24 33 -8
17 9 54 17 81 18 66 3 86 24 93 100 6 74 -12 120 -67 170 -29 27 -29 27 -52
13z"/>
<path d="M3200 1291 c0 -6 -13 -17 -29 -25 -43 -23 -55 -62 -46 -159 4 -45 12
-85 18 -89 7 -4 28 -8 47 -8 19 0 59 -7 88 -14 55 -15 64 -8 33 23 -15 15 -28
18 -61 14 -30 -4 -45 -2 -51 8 -14 23 -10 54 10 71 24 21 47 123 34 158 -8 24
-43 41 -43 21z"/>
<path d="M1995 1196 c-14 -22 -14 -28 1 -67 17 -45 45 -78 81 -97 18 -10 21
-7 32 27 6 21 11 45 11 54 0 23 -21 67 -33 67 -5 0 -20 9 -34 20 -33 26 -39
25 -58 -4z"/>
<path d="M2929 1187 c-72 -64 -92 -133 -45 -155 21 -9 30 -7 62 19 49 39 79
105 65 142 -14 36 -38 34 -82 -6z"/>
<path d="M2237 1178 c-38 -20 -7 -108 44 -127 19 -7 44 -18 56 -23 29 -14 43
-3 43 35 0 63 -97 141 -143 115z"/>
<path d="M2675 1158 c-15 -11 -36 -41 -46 -66 -18 -40 -18 -47 -5 -60 13 -13
17 -13 31 -2 10 8 29 14 43 15 32 0 62 50 62 103 0 29 -3 32 -29 32 -15 0 -41
-10 -56 -22z"/>
<path d="M2303 974 c-35 -55 -30 -64 24 -43 32 12 43 26 43 57 0 36 -41 28
-67 -14z"/>
<path d="M2624 995 c-7 -18 21 -65 39 -65 6 0 22 -3 35 -6 16 -5 22 -2 22 10
0 9 -7 16 -15 16 -9 0 -18 12 -21 30 -5 23 -12 30 -31 30 -13 0 -26 -7 -29
-15z"/>
<path d="M3007 954 c-13 -13 -7 -24 14 -24 11 0 19 5 17 12 -5 14 -22 21 -31
12z"/>
<path d="M1940 936 c0 -9 8 -12 25 -8 37 7 41 22 6 22 -20 0 -31 -5 -31 -14z"/>
<path d="M4122 814 c-8 -9 -22 -12 -33 -9 -22 7 -120 -11 -166 -31 -17 -8 -46
-14 -64 -14 -41 0 -191 -36 -238 -57 -19 -8 -73 -18 -120 -22 -47 -4 -95 -12
-106 -18 -11 -6 -40 -14 -65 -18 -25 -4 -74 -15 -109 -26 -35 -10 -77 -19 -95
-19 -17 0 -79 -10 -138 -22 -99 -21 -107 -24 -102 -43 3 -13 -1 -27 -10 -34
-26 -21 -19 -57 14 -83 33 -26 34 -31 24 -121 -5 -47 -11 -60 -28 -67 -25 -9
-58 14 -49 35 2 8 0 22 -6 32 -9 15 -10 12 -11 -18 0 -42 -15 -59 -52 -59 -36
0 -43 18 -23 56 18 35 20 74 2 74 -30 0 -57 -31 -57 -67 0 -20 -6 -44 -14 -52
-8 -9 -16 -27 -18 -41 -2 -19 4 -28 25 -38 15 -7 27 -20 27 -28 0 -37 98 -43
294 -19 66 8 182 21 256 30 75 8 174 26 221 39 47 14 110 28 140 32 55 6 149
34 204 59 17 7 48 17 70 20 22 4 47 13 55 20 8 7 24 15 35 17 13 2 19 11 18
24 -1 12 7 23 20 29 13 6 24 22 27 38 5 27 8 29 69 32 72 5 89 15 93 55 3 28
3 28 40 16 35 -13 38 -12 62 13 24 25 31 50 28 102 -3 36 -69 107 -107 114
-40 8 -95 -26 -95 -57 l0 -22 -16 22 c-8 12 -23 22 -32 22 -10 0 -3 8 16 17
27 13 32 20 27 40 -4 18 -1 23 13 23 19 0 42 18 42 32 0 14 -54 8 -68 -8z m63
-264 c-5 -8 -11 -8 -17 -2 -6 6 -7 16 -3 22 5 8 11 8 17 2 6 -6 7 -16 3 -22z
m-124 -17 c-9 -16 -10 -14 -11 12 0 21 3 26 11 18 8 -8 8 -16 0 -30z m-151
-99 c0 -8 -4 -12 -10 -9 -5 3 -10 10 -10 16 0 5 5 9 10 9 6 0 10 -7 10 -16z
m-835 -45 c4 -13 1 -27 -9 -38 -9 -9 -19 -32 -22 -50 -11 -52 -69 -71 -80 -26
-9 36 3 88 27 113 26 29 75 30 84 1z m116 -16 c15 -39 3 -93 -20 -93 -22 0
-51 40 -51 69 0 23 25 51 46 51 8 0 19 -12 25 -27z"/>
<path d="M741 766 c-9 -11 -9 -20 -2 -35 13 -24 -20 -111 -42 -111 -8 0 -20
-7 -27 -15 -9 -11 -7 -19 14 -40 37 -37 78 -32 86 10 4 17 15 43 25 59 24 36
27 122 5 136 -22 14 -46 12 -59 -4z"/>
<path d="M1053 722 c33 -34 34 -48 5 -56 -46 -12 -80 -7 -85 13 -11 42 -115
32 -127 -12 -9 -35 -7 -82 4 -93 8 -8 7 -19 -1 -37 -9 -21 -10 -33 0 -53 l11
-25 40 31 c22 17 40 36 40 42 0 5 10 8 23 6 20 -3 22 -9 22 -56 0 -41 4 -56
18 -64 14 -7 23 -6 36 6 23 21 45 21 37 0 -11 -27 12 -54 47 -55 40 -1 91 -30
96 -54 10 -54 86 -95 198 -108 23 -3 55 -12 72 -20 30 -15 117 -31 371 -68
172 -26 418 -36 449 -20 28 16 27 50 -5 92 -33 44 -55 96 -48 114 3 8 21 17
39 21 24 4 37 14 44 32 6 15 20 41 31 58 18 28 19 32 5 38 -10 4 -19 -2 -24
-17 -5 -12 -27 -33 -50 -47 -22 -14 -41 -31 -41 -37 0 -7 -5 -13 -10 -13 -12
0 -30 41 -37 85 -3 17 -11 37 -18 45 -7 8 -16 31 -20 51 l-7 35 -96 22 c-54
12 -120 22 -147 22 -27 0 -85 9 -130 20 -159 38 -232 52 -321 59 -51 3 -98 12
-107 19 -8 7 -41 17 -73 23 -33 6 -79 15 -104 19 -25 5 -72 9 -104 9 l-60 1
27 -28z m62 -242 c0 -7 -6 -15 -12 -17 -8 -3 -13 4 -13 17 0 13 5 20 13 18 6
-3 12 -11 12 -18z m1036 -22 c5 -7 1 -20 -7 -29 -18 -20 -17 -39 1 -63 8 -11
15 -25 15 -30 -1 -23 -47 -67 -79 -76 l-34 -9 6 58 c5 49 3 61 -12 75 -25 22
-14 66 20 84 27 14 79 8 90 -10z m-191 -26 c-1 -15 -11 -40 -24 -56 -19 -23
-29 -27 -50 -22 l-25 6 32 48 c48 70 67 77 67 24z m-106 -153 c-7 -11 -71 -12
-78 -1 -7 12 7 29 29 34 22 5 58 -19 49 -33z"/>
<path d="M4570 476 c-36 -13 -87 -37 -114 -54 -27 -17 -64 -36 -83 -43 -40
-13 -42 -30 -7 -63 l27 -24 -26 -44 c-14 -23 -40 -59 -59 -78 -18 -19 -38 -45
-45 -57 -10 -20 -9 -23 6 -23 10 0 24 6 30 14 6 7 30 17 54 20 23 4 74 22 112
41 39 18 81 37 94 40 13 4 45 20 70 36 25 16 58 35 74 41 34 16 34 31 -2 102
-17 35 -26 66 -23 81 2 14 0 25 -6 25 -6 0 -16 2 -24 4 -7 3 -42 -6 -78 -18z"/>
<path d="M356 482 c-3 -6 1 -15 9 -22 8 -7 15 -16 15 -21 0 -5 17 -32 37 -60
l37 -52 -22 -37 -21 -37 23 -22 c12 -11 29 -21 38 -21 8 0 27 -9 40 -20 34
-26 202 -82 207 -69 1 6 -14 27 -34 47 -20 20 -46 49 -57 65 l-20 27 32 30
c18 17 36 30 40 30 4 0 5 11 3 24 -4 20 -13 26 -47 31 -22 4 -48 13 -56 20
-20 17 -128 71 -160 80 -14 3 -32 9 -42 11 -9 3 -19 1 -22 -4z"/>
<path d="M2475 393 c-4 -13 -13 -23 -20 -23 -16 0 -29 -50 -17 -62 13 -13 54
60 49 86 -4 21 -5 21 -12 -1z"/>
<path d="M2585 338 c-4 -18 -14 -42 -21 -53 -15 -21 -19 -85 -6 -85 16 0 42
41 42 68 0 15 4 44 9 65 7 28 6 37 -4 37 -7 0 -17 -15 -20 -32z"/>
<path d="M2418 238 c-31 -34 -29 -48 6 -48 18 0 25 7 29 28 9 45 -5 53 -35 20z"/>
<path d="M2453 161 c-12 -16 -19 -31 -16 -35 16 -15 51 -4 71 24 17 23 19 30
8 30 -8 0 -21 2 -28 5 -8 3 -23 -7 -35 -24z"/>
</g>
</svg>
